<svg width="123" height="122" viewBox="0 0 123 122" fill="none" xmlns="http://www.w3.org/2000/svg">
<path d="M15.3598 86.24C16.4998 85.35 18.1498 85.56 19.0398 86.7C19.9298 87.84 19.7198 89.49 18.5798 90.38L5.34983 100.66L5.24983 114.51L21.4998 113.6L30.3198 99.58C31.0898 98.36 32.7098 97.99 33.9298 98.76C35.1498 99.53 35.5198 101.15 34.7498 102.37L25.2498 117.46C24.8198 118.19 24.0398 118.7 23.1298 118.75L2.75983 119.9C2.70983 119.9 2.65983 119.9 2.60983 119.9C1.16983 119.89 -0.000170746 118.72 0.00982925 117.27L0.139829 99.56C0.0798292 98.71 0.429829 97.85 1.14983 97.29L15.3598 86.24ZM40.0898 53.93C46.6898 34.2 55.5898 20.21 68.1098 11.4C81.0998 2.25 97.7998 -1.21 119.68 0.369999C121.19 0.479999 122.35 1.72 122.37 3.2C124.49 26.89 119.89 43.69 110.09 56.42C100.66 68.66 86.5098 76.94 68.9498 83.89V107.02C68.9498 108.15 68.2998 109.14 67.3498 109.61L49.4698 120.66C48.1098 121.5 46.3298 121.08 45.4898 119.72C45.2698 119.36 45.1298 118.97 45.0798 118.58C41.1198 88.32 36.9098 86.87 12.1698 78.31C9.20983 77.29 6.01983 76.18 3.85983 75.42C2.34983 74.89 1.55983 73.23 2.08983 71.73C2.19983 71.41 2.36983 71.12 2.56983 70.86L14.3598 54.06C14.9498 53.22 15.9098 52.78 16.8598 52.83L40.0898 53.93ZM90.7098 31.64C89.1098 30.04 86.9098 29.06 84.4698 29.06C82.0398 29.06 79.8298 30.05 78.2298 31.64C76.6298 33.24 75.6498 35.44 75.6498 37.88C75.6498 40.31 76.6398 42.52 78.2298 44.12C79.8298 45.72 82.0298 46.7 84.4698 46.7C86.8998 46.7 89.1098 45.71 90.7098 44.12C92.3098 42.52 93.2898 40.32 93.2898 37.88C93.2898 35.44 92.2998 33.24 90.7098 31.64Z" fill="#000"/>
</svg>
